<svg width="75" height="48" viewBox="0 0 75 48" fill="none" xmlns="http://www.w3.org/2000/svg">
<path d="M50.4222 27.0408L44.0381 24.203C43.5871 24.0026 43.2959 23.5541 43.2959 23.0607V21.3073C45.4404 19.5983 46.8188 16.9666 46.8188 14.0174V11.5492C47.5253 11.1588 47.9931 10.4043 47.9931 9.55925V9.31971C47.9931 4.18085 43.8128 0 38.6747 0H36.3263C31.1882 0 27.008 4.18085 27.008 9.31971V11.4931C27.008 12.2359 27.3276 12.9088 27.8847 13.3394C27.9792 13.4124 28.0786 13.4765 28.1822 13.5321V14.0173C28.1822 16.9665 29.5605 19.5982 31.7049 21.307V23.0605C31.7049 23.554 31.4135 24.0024 30.9626 24.2029L24.5785 27.0407C22.4877 27.97 21.1367 30.0492 21.1367 32.3375V46.9008C21.1367 47.5076 21.6286 47.9996 22.2354 47.9996C22.8421 47.9996 23.334 47.5076 23.334 46.9008V32.3376C23.334 32.2103 23.3431 32.0845 23.3563 31.9596L26.298 34.9018C26.7557 35.3598 27.008 35.9685 27.008 36.6162V46.9009C27.008 47.5078 27.4999 47.9997 28.1066 47.9997C28.7133 47.9997 29.2052 47.5078 29.2052 46.9009V36.6162C29.2052 35.3816 28.7246 34.221 27.8517 33.3479L24.3447 29.8403C24.6607 29.5124 25.0398 29.2406 25.4711 29.0488L31.7475 26.2589L36.402 30.9142V46.9008C36.402 47.5076 36.8939 47.9996 37.5007 47.9996C38.1074 47.9996 38.5993 47.5076 38.5993 46.9008V30.9143L43.2539 26.2591L49.5301 29.0488C49.9614 29.2406 50.3405 29.5124 50.6564 29.8404L47.1495 33.3479C46.2766 34.221 45.7959 35.3816 45.7959 36.6162V46.9009C45.7959 47.5078 46.2878 47.9997 46.8946 47.9997C47.5013 47.9997 47.9932 47.5078 47.9932 46.9009V36.6162C47.9932 35.9686 48.2453 35.3598 48.7032 34.9018L51.6448 31.9598C51.658 32.0846 51.667 32.2102 51.667 32.3375V46.9008C51.667 47.5076 52.1589 47.9996 52.7657 47.9996C53.3724 47.9996 53.8643 47.5076 53.8643 46.9008V32.3376C53.8639 30.0493 52.513 27.9701 50.4222 27.0408ZM37.5002 28.9053L33.4161 24.8204C33.7266 24.2978 33.902 23.6932 33.902 23.0607V22.6136C35.0098 23.0791 36.2255 23.3372 37.5004 23.3372C38.7752 23.3372 39.9908 23.0793 41.0985 22.6137V23.0607C41.0985 23.6933 41.2738 24.2978 41.5845 24.8205L37.5002 28.9053ZM37.5004 21.1394C33.5739 21.1396 30.3793 17.9445 30.3793 14.0174V13.5233C31.0649 13.2515 31.734 12.819 32.3746 12.2279C32.8203 11.8163 32.8483 11.1212 32.4367 10.6752C32.0252 10.2294 31.3303 10.2014 30.8842 10.6129C30.3348 11.1203 29.7858 11.448 29.2528 11.5872C29.24 11.5906 29.2304 11.592 29.2237 11.5926C29.2158 11.5772 29.2051 11.545 29.2051 11.4933V9.31986C29.2051 5.39275 32.3996 2.19774 36.3261 2.19774H38.6746C42.6013 2.19774 45.7957 5.39275 45.7957 9.31986V9.55939C45.7957 9.595 45.7743 9.62591 45.7461 9.63148C39.1674 10.931 35.8677 8.48184 34.7544 7.36839C34.3253 6.93927 33.6297 6.93927 33.2008 7.36839C32.7717 7.79751 32.7717 8.49327 33.2008 8.92224C36.6124 12.3344 41.5907 12.3959 44.6214 12.0317V14.0173C44.6214 17.9444 41.4269 21.1394 37.5004 21.1394Z" fill="#FFC13E"/>
<path d="M19.8109 21.0644V18.7152C19.8109 15.8487 18.3214 13.3253 16.0771 11.8731C16.2157 11.4285 16.2881 10.9628 16.2881 10.4944C16.2881 7.94578 14.215 5.87244 11.6668 5.87244C9.11852 5.87244 7.04547 7.94592 7.04547 10.4944C7.04547 10.9686 7.11725 11.4298 7.25612 11.8734C5.01197 13.3254 3.52266 15.8489 3.52266 18.7152V21.064C3.52266 23.8398 4.9191 26.2944 7.04532 27.7656V30.1819C7.04532 30.6585 6.78063 31.0869 6.3545 31.3L2.55455 33.2002C0.97881 33.9884 0 35.5724 0 37.3344V46.9011C0 47.5079 0.491895 47.9999 1.09863 47.9999C1.70537 47.9999 2.19727 47.5079 2.19727 46.9011V37.8097L3.98702 39.5997C4.44478 40.0577 4.69703 40.6664 4.69703 41.3141V46.9011C4.69703 47.5079 5.18892 47.9999 5.79566 47.9999C6.4024 47.9999 6.8943 47.5079 6.8943 46.9011V41.3141C6.8943 40.0795 6.41354 38.9189 5.54078 38.0459L3.04981 35.5545C3.0378 35.5425 3.02491 35.5321 3.0126 35.5208C3.1689 35.3828 3.34424 35.2627 3.53731 35.166L7.33727 33.2658C7.53195 33.1684 7.71315 33.0534 7.88204 32.9256L10.5681 35.6123V46.9012C10.5681 47.508 11.06 48 11.6668 48C12.2735 48 12.7654 47.508 12.7654 46.9012V35.6121L15.4516 32.9255C15.6207 33.0534 15.8017 33.1684 15.9964 33.2657L17.0442 33.7897C17.202 33.8687 17.3696 33.9061 17.5348 33.9061C17.9378 33.9061 18.3258 33.6834 18.5183 33.2985C18.7897 32.7557 18.5697 32.0957 18.027 31.8244L16.9792 31.3003C16.5529 31.0872 16.2882 30.6588 16.2882 30.1823V27.766C18.4144 26.2948 19.8109 23.8401 19.8109 21.0644ZM11.6668 8.07001C13.0034 8.07001 14.0908 9.15767 14.0908 10.4944C14.0908 10.6416 14.0776 10.7859 14.0524 10.9273C13.2974 10.6955 12.4966 10.57 11.6668 10.57C10.8381 10.57 10.0383 10.6951 9.28449 10.9263C9.25915 10.7849 9.24274 10.6413 9.24274 10.4944C9.24274 9.15752 10.3301 8.07001 11.6668 8.07001ZM11.6668 12.7677C14.9458 12.7677 17.6136 15.4359 17.6136 18.7154V19.1136C13.0396 20.5142 10.3137 17.0342 10.1972 16.8817C10.0061 16.6269 9.71383 16.4675 9.39626 16.445C9.07868 16.4227 8.76667 16.5389 8.54152 16.7641C7.49284 17.8129 6.46569 18.3188 5.72389 18.563C5.80519 15.3537 8.43883 12.7677 11.6668 12.7677ZM11.6668 33.6029L9.12804 31.0639C9.20216 30.7805 9.24274 30.4852 9.24274 30.182V28.8408C10.0087 29.0802 10.823 29.2092 11.6668 29.2092C12.5105 29.2092 13.3248 29.0802 14.0908 28.8408V30.182C14.0908 30.4852 14.1314 30.7807 14.2055 31.0639L11.6668 33.6029ZM11.6668 27.0117C8.38771 27.0117 5.71993 24.3435 5.71993 21.064V20.8363C6.59606 20.635 7.89508 20.1672 9.25021 19.0772C9.72966 19.5297 10.4149 20.0846 11.2875 20.5606C12.3197 21.1236 13.7451 21.6445 15.4862 21.6445C16.1479 21.6445 16.8558 21.5675 17.6042 21.3909C17.4339 24.519 14.8361 27.0117 11.6668 27.0117Z" fill="#FFC13E"/>
<path d="M72.4456 30.8515L66.2972 27.7768C65.8711 27.5636 65.6064 27.1353 65.6064 26.6588V25.1016C67.0456 23.8237 67.9548 21.9613 67.9548 19.8897V18.639C67.9801 18.639 68.0051 18.6398 68.0304 18.6398C68.6371 18.6398 69.129 18.1478 69.129 17.541V15.1922C69.129 11.3486 66.0023 8.22144 62.1591 8.22144H59.8107C55.9675 8.22144 52.8408 11.3486 52.8408 15.1922V17.541C52.8408 18.1478 53.3327 18.6398 53.9395 18.6398C53.9485 18.6398 53.9749 18.6395 54.015 18.6379V19.8897C54.015 21.9615 54.9244 23.8238 56.3636 25.1018V26.659C56.3636 27.1355 56.0989 27.5639 55.6727 27.7769C55.1299 28.0483 54.9099 28.7083 55.1814 29.2511C55.3738 29.6361 55.7619 29.8588 56.1648 29.8588C56.3299 29.8588 56.4975 29.8214 56.6553 29.7426C56.85 29.6452 57.0312 29.5301 57.2001 29.4024L59.8863 32.089V46.901C59.8863 47.5078 60.3782 47.9998 60.9849 47.9998C61.5917 47.9998 62.0836 47.5078 62.0836 46.901V32.0887L64.7696 29.4021C64.9387 29.53 65.1197 29.645 65.3144 29.7423L71.2639 32.7175L69.4593 34.5223C68.5866 35.3953 68.1058 36.5559 68.1058 37.7905V46.9007C68.1058 47.5075 68.5977 47.9995 69.2045 47.9995C69.8112 47.9995 70.3031 47.5075 70.3031 46.9007V37.7905C70.3031 37.1429 70.5552 36.5341 71.0131 36.0761L72.7224 34.3665C72.7743 34.5653 72.8027 34.7726 72.8027 34.9854V46.9007C72.8027 47.5075 73.2946 47.9995 73.9014 47.9995C74.5081 47.9995 75 47.5075 75 46.9007V34.9854C75.0001 33.2235 74.0213 31.6395 72.4456 30.8515ZM55.0379 16.2162V15.1921H55.0381C55.0381 12.5602 57.1791 10.4188 59.8107 10.4188H62.1591C64.7907 10.4188 66.9318 12.5602 66.9318 15.1921V16.4126C62.1559 16.1549 59.2738 14.2962 59.2459 14.2779C59.06 14.154 58.8479 14.0933 58.6368 14.0933C58.3532 14.0933 58.0719 14.2029 57.8595 14.4152C56.8084 15.4665 55.7784 15.9725 55.0379 16.2162ZM60.9849 30.0797L58.4462 27.5406C58.5203 27.2573 58.5609 26.9619 58.5609 26.6588V26.4249C59.3162 26.706 60.1328 26.8604 60.9849 26.8604C61.837 26.8604 62.6537 26.706 63.409 26.4249V26.6588C63.409 26.9619 63.4494 27.2573 63.5236 27.5406L60.9849 30.0797ZM60.9849 24.663C58.3533 24.663 56.2123 22.5218 56.2123 19.8897V18.1184C56.9818 17.8109 57.8783 17.322 58.7906 16.5446C59.9443 17.145 62.3581 18.1827 65.7575 18.5255V19.8897C65.7575 22.5217 63.6165 24.663 60.9849 24.663Z" fill="#FFC13E"/>
</svg>
